
<svg width="58" height="44" xmlns="http://www.w3.org/2000/svg" xmlns:xlink="http://www.w3.org/1999/xlink" xmlns:svgjs="http://svgjs.com/svgjs" viewBox="0 0.484 58 43.032" fill="#fff"><svg xmlns="http://www.w3.org/2000/svg" width="58" height="44" viewBox="0.127 0.684 57.772 42.862"><path paint-order="stroke fill markers" fill-rule="evenodd" d="M56.033 41.681V.684h-9.314v40.997h-1.865V6.28H35.54v35.414h-1.865v-22.37H24.35v22.358h-1.865V13.728H13.17v27.953h-1.865V28.637H1.992v13.044H.127v1.866h57.771V41.68h-1.865zm-46.581 0H3.857V30.502h5.595v11.18zm11.179 0h-5.595V15.593h5.595v26.088zm11.179.012h-5.595V21.189h5.595v20.504zm11.179 0h-5.595V8.144h5.595v33.549zm11.19-.012h-5.595V2.55h5.595v39.132z"/></svg></svg>