
<svg width="57" height="57" xmlns="http://www.w3.org/2000/svg" xmlns:xlink="http://www.w3.org/1999/xlink" xmlns:svgjs="http://svgjs.com/svgjs" viewBox="652 287 57 57"><svg width="29" height="13" xmlns="http://www.w3.org/2000/svg" xmlns:xlink="http://www.w3.org/1999/xlink" xmlns:svgjs="http://svgjs.com/svgjs" viewBox="0 0.458 29 12.083" fill="#fff" x="680" y="322"><svg xmlns="http://www.w3.org/2000/svg" xmlns:xlink="http://www.w3.org/1999/xlink" width="29" height="13" viewBox="0.666 0.538 28.246 11.769"><path paint-order="stroke fill markers" fill-rule="evenodd" d="M23.027 12.307H6.55A5.893 5.893 0 0 1 .666 6.422 5.892 5.892 0 0 1 6.55.538h16.477a5.892 5.892 0 0 1 5.885 5.884 5.893 5.893 0 0 1-5.885 5.885zM6.55 2.891a3.535 3.535 0 0 0-3.53 3.531 3.535 3.535 0 0 0 3.53 3.531h16.477a3.535 3.535 0 0 0 3.53-3.53 3.535 3.535 0 0 0-3.53-3.532H6.55z"/></svg></svg><svg width="29" height="12" xmlns="http://www.w3.org/2000/svg" xmlns:xlink="http://www.w3.org/1999/xlink" xmlns:svgjs="http://svgjs.com/svgjs" viewBox="0.1 0 28.8 12" fill="#fff" x="680" y="313"><svg xmlns="http://www.w3.org/2000/svg" xmlns:xlink="http://www.w3.org/1999/xlink" width="29" height="12" viewBox="0.666 0.122 28.246 11.769"><path paint-order="stroke fill markers" fill-rule="evenodd" d="M23.027 11.891H6.55A5.893 5.893 0 0 1 .666 6.007 5.893 5.893 0 0 1 6.55.122h16.477a5.893 5.893 0 0 1 5.885 5.885 5.893 5.893 0 0 1-5.885 5.884zM6.55 2.476a3.535 3.535 0 0 0-3.53 3.53 3.535 3.535 0 0 0 3.53 3.532h16.477a3.535 3.535 0 0 0 3.53-3.531 3.535 3.535 0 0 0-3.53-3.53H6.55z"/></svg></svg><svg width="6" height="4" xmlns="http://www.w3.org/2000/svg" xmlns:xlink="http://www.w3.org/1999/xlink" xmlns:svgjs="http://svgjs.com/svgjs" viewBox="0 0.5 6 3" fill="#fff" x="685" y="317"><svg xmlns="http://www.w3.org/2000/svg" xmlns:xlink="http://www.w3.org/1999/xlink" width="6" height="4" viewBox="0.373 0.83 4.708 2.354"><path paint-order="stroke fill markers" fill-rule="evenodd" d="M3.904 3.184H1.55a1.177 1.177 0 0 1 0-2.354h2.354a1.177 1.177 0 0 1 0 2.354z"/></svg></svg><svg width="6" height="3" xmlns="http://www.w3.org/2000/svg" xmlns:xlink="http://www.w3.org/1999/xlink" xmlns:svgjs="http://svgjs.com/svgjs" fill="#fff" x="685" y="327"><svg xmlns="http://www.w3.org/2000/svg" xmlns:xlink="http://www.w3.org/1999/xlink" width="6" height="3" viewBox="0.373 0.245 4.708 2.354"><path paint-order="stroke fill markers" fill-rule="evenodd" d="M3.904 2.599H1.55a1.177 1.177 0 0 1 0-2.354h2.354a1.177 1.177 0 0 1 0 2.354z"/></svg></svg><svg width="6" height="4" xmlns="http://www.w3.org/2000/svg" xmlns:xlink="http://www.w3.org/1999/xlink" xmlns:svgjs="http://svgjs.com/svgjs" viewBox="0 0.5 6 3" fill="#fff" x="692" y="317"><svg xmlns="http://www.w3.org/2000/svg" xmlns:xlink="http://www.w3.org/1999/xlink" width="6" height="4" viewBox="0.435 0.83 4.708 2.354"><path paint-order="stroke fill markers" fill-rule="evenodd" d="M3.966 3.184H1.612a1.177 1.177 0 0 1 0-2.354h2.354a1.177 1.177 0 0 1 0 2.354z"/></svg></svg><svg width="6" height="3" xmlns="http://www.w3.org/2000/svg" xmlns:xlink="http://www.w3.org/1999/xlink" xmlns:svgjs="http://svgjs.com/svgjs" fill="#fff" x="692" y="327"><svg xmlns="http://www.w3.org/2000/svg" xmlns:xlink="http://www.w3.org/1999/xlink" width="6" height="3" viewBox="0.435 0.245 4.708 2.354"><path paint-order="stroke fill markers" fill-rule="evenodd" d="M3.966 2.599H1.612a1.177 1.177 0 0 1 0-2.354h2.354a1.177 1.177 0 0 1 0 2.354z"/></svg></svg><svg width="29" height="13" xmlns="http://www.w3.org/2000/svg" xmlns:xlink="http://www.w3.org/1999/xlink" xmlns:svgjs="http://svgjs.com/svgjs" viewBox="0 0.458 29 12.083" fill="#fff" x="680" y="331"><svg xmlns="http://www.w3.org/2000/svg" xmlns:xlink="http://www.w3.org/1999/xlink" width="29" height="13" viewBox="0.666 0.953 28.246 11.769"><path paint-order="stroke fill markers" fill-rule="evenodd" d="M23.027 12.722H6.55A5.893 5.893 0 0 1 .666 6.837 5.893 5.893 0 0 1 6.55.953h16.477a5.893 5.893 0 0 1 5.885 5.884 5.893 5.893 0 0 1-5.885 5.885zM6.55 3.307a3.535 3.535 0 0 0-3.53 3.53 3.535 3.535 0 0 0 3.53 3.531h16.477a3.535 3.535 0 0 0 3.53-3.53 3.535 3.535 0 0 0-3.53-3.531H6.55z"/></svg></svg><svg width="6" height="4" xmlns="http://www.w3.org/2000/svg" xmlns:xlink="http://www.w3.org/1999/xlink" xmlns:svgjs="http://svgjs.com/svgjs" viewBox="0 0.5 6 3" fill="#fff" x="685" y="336"><svg xmlns="http://www.w3.org/2000/svg" xmlns:xlink="http://www.w3.org/1999/xlink" width="6" height="4" viewBox="0.373 0.661 4.708 2.354"><path paint-order="stroke fill markers" fill-rule="evenodd" d="M3.904 3.015H1.55a1.178 1.178 0 0 1 0-2.354h2.354a1.177 1.177 0 0 1 0 2.354z"/></svg></svg><svg width="6" height="4" xmlns="http://www.w3.org/2000/svg" xmlns:xlink="http://www.w3.org/1999/xlink" xmlns:svgjs="http://svgjs.com/svgjs" viewBox="0 0.5 6 3" fill="#fff" x="692" y="336"><svg xmlns="http://www.w3.org/2000/svg" xmlns:xlink="http://www.w3.org/1999/xlink" width="6" height="4" viewBox="0.435 0.661 4.708 2.354"><path paint-order="stroke fill markers" fill-rule="evenodd" d="M3.966 3.015H1.612a1.178 1.178 0 0 1 0-2.354h2.354a1.177 1.177 0 0 1 0 2.354z"/></svg></svg><svg width="29" height="13" xmlns="http://www.w3.org/2000/svg" xmlns:xlink="http://www.w3.org/1999/xlink" xmlns:svgjs="http://svgjs.com/svgjs" viewBox="0 0.458 29 12.083" fill="#fff" x="652" y="296"><svg xmlns="http://www.w3.org/2000/svg" xmlns:xlink="http://www.w3.org/1999/xlink" width="29" height="13" viewBox="0.419 0.645 28.246 11.769"><path paint-order="stroke fill markers" fill-rule="evenodd" d="M22.78 12.414H6.305A5.893 5.893 0 0 1 .419 6.53 5.893 5.893 0 0 1 6.304.645h16.477a5.893 5.893 0 0 1 5.885 5.885 5.893 5.893 0 0 1-5.885 5.884zM6.305 3a3.535 3.535 0 0 0-3.53 3.531 3.535 3.535 0 0 0 3.53 3.53h16.477a3.535 3.535 0 0 0 3.53-3.53A3.535 3.535 0 0 0 22.782 3H6.304z"/></svg></svg><svg width="29" height="12" xmlns="http://www.w3.org/2000/svg" xmlns:xlink="http://www.w3.org/1999/xlink" xmlns:svgjs="http://svgjs.com/svgjs" viewBox="0.1 0 28.8 12" fill="#fff" x="652" y="287"><svg xmlns="http://www.w3.org/2000/svg" xmlns:xlink="http://www.w3.org/1999/xlink" width="29" height="12" viewBox="0.419 0.23 28.246 11.769"><path paint-order="stroke fill markers" fill-rule="evenodd" d="M22.78 12H6.305A5.893 5.893 0 0 1 .419 6.113 5.893 5.893 0 0 1 6.304.23h16.477a5.893 5.893 0 0 1 5.885 5.884A5.893 5.893 0 0 1 22.78 12zM6.305 2.583a3.535 3.535 0 0 0-3.53 3.53 3.535 3.535 0 0 0 3.53 3.531h16.477a3.535 3.535 0 0 0 3.53-3.53 3.535 3.535 0 0 0-3.53-3.531H6.304z"/></svg></svg><svg width="5" height="4" xmlns="http://www.w3.org/2000/svg" xmlns:xlink="http://www.w3.org/1999/xlink" xmlns:svgjs="http://svgjs.com/svgjs" viewBox="0 0.75 5 2.5" fill="#fff" x="657" y="291"><svg xmlns="http://www.w3.org/2000/svg" xmlns:xlink="http://www.w3.org/1999/xlink" width="5" height="4" viewBox="0.127 0.938 4.708 2.354"><path paint-order="stroke fill markers" fill-rule="evenodd" d="M3.658 3.292H1.304a1.177 1.177 0 0 1 0-2.354h2.354a1.177 1.177 0 0 1 0 2.354z"/></svg></svg><svg width="5" height="3" xmlns="http://www.w3.org/2000/svg" xmlns:xlink="http://www.w3.org/1999/xlink" xmlns:svgjs="http://svgjs.com/svgjs" viewBox="0 0.25 5 2.5" fill="#fff" x="657" y="301"><svg xmlns="http://www.w3.org/2000/svg" xmlns:xlink="http://www.w3.org/1999/xlink" width="5" height="3" viewBox="0.127 0.353 4.708 2.354"><path paint-order="stroke fill markers" fill-rule="evenodd" d="M3.658 2.707H1.304a1.177 1.177 0 0 1 0-2.354h2.354a1.178 1.178 0 0 1 0 2.354z"/></svg></svg><svg width="5" height="4" xmlns="http://www.w3.org/2000/svg" xmlns:xlink="http://www.w3.org/1999/xlink" xmlns:svgjs="http://svgjs.com/svgjs" viewBox="0 0.75 5 2.5" fill="#fff" x="664" y="291"><svg xmlns="http://www.w3.org/2000/svg" xmlns:xlink="http://www.w3.org/1999/xlink" width="5" height="4" viewBox="0.189 0.938 4.708 2.354"><path paint-order="stroke fill markers" fill-rule="evenodd" d="M3.72 3.292H1.365a1.177 1.177 0 0 1 0-2.354h2.353a1.177 1.177 0 0 1 0 2.354z"/></svg></svg><svg width="5" height="3" xmlns="http://www.w3.org/2000/svg" xmlns:xlink="http://www.w3.org/1999/xlink" xmlns:svgjs="http://svgjs.com/svgjs" viewBox="0 0.25 5 2.5" fill="#fff" x="664" y="301"><svg xmlns="http://www.w3.org/2000/svg" xmlns:xlink="http://www.w3.org/1999/xlink" width="5" height="3" viewBox="0.189 0.353 4.708 2.354"><path paint-order="stroke fill markers" fill-rule="evenodd" d="M3.72 2.707H1.365a1.177 1.177 0 0 1 0-2.354h2.353a1.178 1.178 0 0 1 0 2.354z"/></svg></svg><svg width="29" height="12" xmlns="http://www.w3.org/2000/svg" xmlns:xlink="http://www.w3.org/1999/xlink" xmlns:svgjs="http://svgjs.com/svgjs" viewBox="0.1 0 28.8 12" fill="#fff" x="652" y="306"><svg xmlns="http://www.w3.org/2000/svg" xmlns:xlink="http://www.w3.org/1999/xlink" width="29" height="12" viewBox="0.419 0.061 28.246 11.769"><path paint-order="stroke fill markers" fill-rule="evenodd" d="M22.78 11.83H6.305A5.893 5.893 0 0 1 .419 5.945 5.892 5.892 0 0 1 6.304.061h16.477a5.892 5.892 0 0 1 5.885 5.884 5.893 5.893 0 0 1-5.885 5.885zM6.305 2.414a3.535 3.535 0 0 0-3.53 3.531 3.535 3.535 0 0 0 3.53 3.531h16.477a3.535 3.535 0 0 0 3.53-3.53 3.535 3.535 0 0 0-3.53-3.532H6.304z"/></svg></svg><svg width="5" height="4" xmlns="http://www.w3.org/2000/svg" xmlns:xlink="http://www.w3.org/1999/xlink" xmlns:svgjs="http://svgjs.com/svgjs" viewBox="0 0.75 5 2.5" fill="#fff" x="657" y="310"><svg xmlns="http://www.w3.org/2000/svg" xmlns:xlink="http://www.w3.org/1999/xlink" width="5" height="4" viewBox="0.127 0.768 4.708 2.354"><path paint-order="stroke fill markers" fill-rule="evenodd" d="M3.658 3.122H1.304a1.177 1.177 0 0 1 0-2.354h2.354a1.177 1.177 0 0 1 0 2.354z"/></svg></svg><svg width="5" height="4" xmlns="http://www.w3.org/2000/svg" xmlns:xlink="http://www.w3.org/1999/xlink" xmlns:svgjs="http://svgjs.com/svgjs" viewBox="0 0.75 5 2.5" fill="#fff" x="664" y="310"><svg xmlns="http://www.w3.org/2000/svg" xmlns:xlink="http://www.w3.org/1999/xlink" width="5" height="4" viewBox="0.189 0.768 4.708 2.354"><path paint-order="stroke fill markers" fill-rule="evenodd" d="M3.72 3.122H1.365a1.177 1.177 0 0 1 0-2.354h2.353a1.177 1.177 0 0 1 0 2.354z"/></svg></svg><svg width="6" height="10" xmlns="http://www.w3.org/2000/svg" xmlns:xlink="http://www.w3.org/1999/xlink" xmlns:svgjs="http://svgjs.com/svgjs" viewBox="0 0.2 6 9.6" fill="#fff" x="690" y="293"><svg xmlns="http://www.w3.org/2000/svg" xmlns:xlink="http://www.w3.org/1999/xlink" width="6" height="10" viewBox="0.08 0.117 5.883 9.414"><path paint-order="stroke fill markers" fill-rule="evenodd" d="M4.789 9.53c-.302 0-.603-.116-.834-.344l-3.53-3.53a1.178 1.178 0 0 1 0-1.664L3.955.46A1.178 1.178 0 0 1 5.62 2.125L2.923 4.822 5.62 7.52a1.178 1.178 0 0 1-.831 2.01z"/></svg></svg><svg width="11" height="11" xmlns="http://www.w3.org/2000/svg" xmlns:xlink="http://www.w3.org/1999/xlink" xmlns:svgjs="http://svgjs.com/svgjs" viewBox="0 0.612 11 9.776" fill="#fff" x="691" y="296"><svg xmlns="http://www.w3.org/2000/svg" xmlns:xlink="http://www.w3.org/1999/xlink" width="11" height="11" viewBox="0.256 0.645 10.595 9.416"><path paint-order="stroke fill markers" fill-rule="evenodd" d="M9.673 10.06c-.65 0-1.177-.527-1.177-1.176V6.53A3.535 3.535 0 0 0 4.966 3H1.432a1.177 1.177 0 0 1 0-2.355h3.534A5.893 5.893 0 0 1 10.85 6.53v2.354c0 .65-.527 1.177-1.177 1.177z"/></svg></svg><svg width="7" height="10" xmlns="http://www.w3.org/2000/svg" xmlns:xlink="http://www.w3.org/1999/xlink" xmlns:svgjs="http://svgjs.com/svgjs" viewBox="0.374 0 6.253 10" fill="#fff" x="665" y="328"><svg xmlns="http://www.w3.org/2000/svg" xmlns:xlink="http://www.w3.org/1999/xlink" width="7" height="10" viewBox="0.365 0.424 5.886 9.414"><path paint-order="stroke fill markers" fill-rule="evenodd" d="M1.542 9.837c-.3 0-.602-.115-.833-.343a1.178 1.178 0 0 1 0-1.664l2.7-2.7L.712 2.432A1.178 1.178 0 0 1 2.376.768l3.53 3.53a1.178 1.178 0 0 1 0 1.665l-3.53 3.531c-.23.228-.532.343-.834.343z"/></svg></svg><svg width="12" height="11" xmlns="http://www.w3.org/2000/svg" xmlns:xlink="http://www.w3.org/1999/xlink" xmlns:svgjs="http://svgjs.com/svgjs" viewBox="0 0.168 12 10.665" fill="#fff" x="659" y="324"><svg xmlns="http://www.w3.org/2000/svg" width="12" height="11" viewBox="0.481 0.891 10.595 9.416"><path paint-order="stroke fill markers" fill-rule="evenodd" d="M9.899 10.307H6.366A5.893 5.893 0 0 1 .48 4.422V2.07a1.177 1.177 0 0 1 2.354 0v2.353a3.535 3.535 0 0 0 3.53 3.531H9.9a1.177 1.177 0 0 1 0 2.354z"/></svg></svg></svg>