<svg width="60" height="57" xmlns="http://www.w3.org/2000/svg" xmlns:xlink="http://www.w3.org/1999/xlink" xmlns:svgjs="http://svgjs.com/svgjs" viewBox="1049 457 60 57"><svg width="60" height="33" xmlns="http://www.w3.org/2000/svg" xmlns:xlink="http://www.w3.org/1999/xlink" xmlns:svgjs="http://svgjs.com/svgjs" viewBox="0 0.546 60 31.908" fill="#525252" x="1049" y="457"><svg xmlns="http://www.w3.org/2000/svg" xmlns:xlink="http://www.w3.org/1999/xlink" width="60" height="33" viewBox="0.286 0.64 59.437 31.608"><path paint-order="stroke fill markers" fill-rule="evenodd" d="M30.005 32.249c-2.269 0-4.538-.52-6.606-1.559L2.486 20.187a3.974 3.974 0 0 1-2.2-3.54A3.974 3.974 0 0 1 2.44 13.08L23.225 2.292a14.738 14.738 0 0 1 13.56 0L57.571 13.08a3.974 3.974 0 0 1 2.152 3.568 3.973 3.973 0 0 1-2.199 3.539L36.611 30.69a14.733 14.733 0 0 1-6.606 1.559zm-6.38-29.184l.402.773L3.24 14.626a2.21 2.21 0 0 0-1.212 2.01 2.21 2.21 0 0 0 1.239 1.994L24.18 29.134a13.032 13.032 0 0 0 11.649 0L56.742 18.63a2.21 2.21 0 0 0 1.24-1.994 2.21 2.21 0 0 0-1.213-2.01L35.982 3.838a12.99 12.99 0 0 0-11.955 0l-.401-.773z"/></svg></svg><svg width="60" height="24" xmlns="http://www.w3.org/2000/svg" xmlns:xlink="http://www.w3.org/1999/xlink" xmlns:svgjs="http://svgjs.com/svgjs" viewBox="0 0.68 60 22.64" fill="#525252" x="1049" y="478"><svg xmlns="http://www.w3.org/2000/svg" xmlns:xlink="http://www.w3.org/1999/xlink" width="60" height="24" viewBox="0.286 0.771 59.437 22.427"><path paint-order="stroke fill markers" fill-rule="evenodd" d="M30.005 23.198c-2.269 0-4.538-.52-6.606-1.558L2.485 11.137a3.973 3.973 0 0 1-2.198-3.54A3.972 3.972 0 0 1 2.439 4.03L8.719.771l.801 1.546-6.28 3.259a2.211 2.211 0 0 0-1.212 2.01 2.21 2.21 0 0 0 1.24 1.994L24.18 20.084a13.035 13.035 0 0 0 11.649 0L56.742 9.58a2.21 2.21 0 0 0 1.24-1.994 2.21 2.21 0 0 0-1.213-2.01l-6.28-3.26.802-1.545 6.28 3.26a3.972 3.972 0 0 1 2.152 3.567 3.973 3.973 0 0 1-2.199 3.539L36.611 21.64a14.727 14.727 0 0 1-6.606 1.558z"/></svg></svg><svg width="18" height="6" xmlns="http://www.w3.org/2000/svg" xmlns:xlink="http://www.w3.org/1999/xlink" xmlns:svgjs="http://svgjs.com/svgjs" viewBox="0 0.399 18 5.202" fill="#525252" x="1068" y="481"><svg xmlns="http://www.w3.org/2000/svg" xmlns:xlink="http://www.w3.org/1999/xlink" width="18" height="6" viewBox="0.95 0.531 16.474 4.761"><path paint-order="stroke fill markers" fill-rule="evenodd" d="M1.822 5.292a.871.871 0 0 1-.402-1.644l2.805-1.456a14.655 14.655 0 0 1 12.677-.42.87.87 0 1 1-.698 1.595 12.919 12.919 0 0 0-11.177.371L2.222 5.194a.868.868 0 0 1-.4.098z"/></svg></svg><svg width="60" height="30" xmlns="http://www.w3.org/2000/svg" xmlns:xlink="http://www.w3.org/1999/xlink" xmlns:svgjs="http://svgjs.com/svgjs" viewBox="0 0.565 60 28.87" fill="#525252" x="1049" y="484"><svg xmlns="http://www.w3.org/2000/svg" xmlns:xlink="http://www.w3.org/1999/xlink" width="60" height="30" viewBox="0.286 0.55 59.437 28.598"><path paint-order="stroke fill markers" fill-rule="evenodd" d="M30.005 29.148c-2.269 0-4.538-.52-6.606-1.558L2.485 17.087a3.972 3.972 0 0 1-2.198-3.54A3.973 3.973 0 0 1 2.439 9.98l14.4-7.473a.87.87 0 1 1 .802 1.545l-14.4 7.474a2.211 2.211 0 0 0-1.213 2.01 2.21 2.21 0 0 0 1.24 1.995L24.18 26.034a13.032 13.032 0 0 0 11.649 0L56.742 15.53a2.21 2.21 0 0 0 1.24-1.994 2.21 2.21 0 0 0-1.213-2.011L38.787 2.194A.87.87 0 1 1 39.59.648L57.57 9.98a3.972 3.972 0 0 1 2.153 3.568 3.972 3.972 0 0 1-2.199 3.539L36.611 27.59a14.722 14.722 0 0 1-6.606 1.558z"/></svg></svg><svg width="30" height="12" xmlns="http://www.w3.org/2000/svg" xmlns:xlink="http://www.w3.org/1999/xlink" xmlns:svgjs="http://svgjs.com/svgjs" viewBox="0 0.542 30 10.916" fill="#525252" x="1057" y="469"><svg xmlns="http://www.w3.org/2000/svg" xmlns:xlink="http://www.w3.org/1999/xlink" width="30" height="12" viewBox="0.248 0.59 29.749 10.825"><path paint-order="stroke fill markers" fill-rule="evenodd" d="M1.12 11.415a.871.871 0 0 1-.402-1.644l14.507-7.528a14.736 14.736 0 0 1 13.56 0s1.6.66 1.124 1.564c-.472.896-1.927-.019-1.927-.019a12.99 12.99 0 0 0-11.955 0L1.52 11.317a.867.867 0 0 1-.4.098z"/></svg></svg><svg width="13" height="8" xmlns="http://www.w3.org/2000/svg" xmlns:xlink="http://www.w3.org/1999/xlink" xmlns:svgjs="http://svgjs.com/svgjs" viewBox="0 0.177 13 7.646" fill="#525252" x="1088" y="473"><svg xmlns="http://www.w3.org/2000/svg" width="13" height="8" viewBox="0.641 0.287 12.12 7.128"><path paint-order="stroke fill markers" fill-rule="evenodd" d="M11.89 7.415a.868.868 0 0 1-.401-.098L1.111 1.93A.87.87 0 1 1 1.913.385l10.378 5.386a.871.871 0 0 1-.402 1.644z"/></svg></svg></svg>