
<svg width="31" height="30" xmlns="http://www.w3.org/2000/svg" xmlns:xlink="http://www.w3.org/1999/xlink" xmlns:svgjs="http://svgjs.com/svgjs" viewBox="0.508 0 29.984 30" fill="#47a809"><svg xmlns="http://www.w3.org/2000/svg" width="31" height="30" viewBox="0.465 0.121 29.756 29.772"><path paint-order="stroke fill markers" fill-rule="evenodd" d="M.465 15.005C.465 6.798 7.139.12 15.342.12c8.204 0 14.879 6.677 14.879 14.884 0 8.209-6.675 14.888-14.879 14.888C7.14 29.893.465 23.214.465 15.005zm28.391 0c0-7.454-6.062-13.518-13.514-13.518-7.45 0-13.512 6.064-13.512 13.518 0 7.457 6.061 13.523 13.512 13.523 7.452 0 13.514-6.066 13.514-13.523zM15.342 3.135l9.64 16.704-9.791-5.828-9.486 5.828 9.637-16.703z"/></svg></svg>