
<svg width="22" height="48" xmlns="http://www.w3.org/2000/svg" xmlns:xlink="http://www.w3.org/1999/xlink" xmlns:svgjs="http://svgjs.com/svgjs" viewBox="0.315 0 21.37 48" fill="#fff"><svg xmlns="http://www.w3.org/2000/svg" width="22" height="48" viewBox="0.781 0.52 20.793 46.702"><path paint-order="stroke fill markers" fill-rule="evenodd" d="M12.765.52c3.403.028 6.114 2.794 6.086 6.252-.028 3.403-2.794 6.197-6.114 6.17-3.43-.028-6.196-2.823-6.168-6.253A6.18 6.18 0 0 1 12.765.52zM.787 17.063c.083-.664.498-1.107 1.383-1.273.47-.083.94-.11 1.41-.11h11.675c1.438 0 2.296.691 2.323 2.13.028 1.19-.165 2.407-.387 3.596-.774 4.399-1.604 8.797-2.406 13.195-.277 1.467-.554 2.905-.747 4.371-.083.692.027 1.439.193 2.13.222.913.913 1.439 1.854 1.328.774-.083 1.549-.36 2.296-.636.608-.221 1.134-.636 1.743-.885.885-.36 1.632.276 1.41 1.19a3.432 3.432 0 0 1-.857 1.465c-2.24 2.269-4.924 3.624-8.133 3.652-1.494.028-3.016-.028-4.482-.25-2.462-.359-5.588-3.402-5.145-6.666.304-2.213.636-4.454 1.023-6.64.664-3.844 1.356-7.69 2.02-11.535.055-.249.055-.497.055-.747 0-1.604-.498-2.185-2.102-2.406-.692-.083-1.383-.139-2.02-.388-.83-.276-1.161-.913-1.106-1.521z"/></svg></svg>