
<svg width="31" height="30" xmlns="http://www.w3.org/2000/svg" xmlns:xlink="http://www.w3.org/1999/xlink" xmlns:svgjs="http://svgjs.com/svgjs" viewBox="0.508 0 29.984 30" fill="#f74d31"><svg xmlns="http://www.w3.org/2000/svg" width="31" height="30" viewBox="0.464 0.121 29.756 29.772"><path paint-order="stroke fill markers" fill-rule="evenodd" d="M30.22 15.01c0 8.207-6.673 14.883-14.877 14.883S.464 23.217.464 15.01C.464 6.8 7.14.12 15.344.12c8.203 0 14.877 6.68 14.877 14.889zm-28.39 0c0 7.454 6.061 13.518 13.513 13.518 7.451 0 13.512-6.064 13.512-13.518 0-7.457-6.06-13.524-13.512-13.524C7.891 1.486 1.83 7.553 1.83 15.01zm13.513 11.869l-9.64-16.704 9.791 5.828 9.487-5.828-9.638 16.704z"/></svg></svg>