
<svg width="44" height="40" xmlns="http://www.w3.org/2000/svg" xmlns:xlink="http://www.w3.org/1999/xlink" xmlns:svgjs="http://svgjs.com/svgjs" viewBox="0 0.2 44 39.6" fill="#fff"><svg xmlns="http://www.w3.org/2000/svg" width="44" height="40" viewBox="0.218 0.66 43.511 39.16"><path paint-order="stroke fill markers" fill-rule="evenodd" d="M36.115 24.591c-2.446 0-4.602 1.18-5.996 2.978l-14.73-5.665c.015-.193.058-.379.058-.576 0-.366-.058-.716-.108-1.069l15.094-6.966c1.396 1.579 3.414 2.596 5.682 2.596 4.198 0 7.615-3.416 7.615-7.614 0-4.199-3.417-7.615-7.615-7.615s-7.614 3.416-7.614 7.615c0 .366.058.716.108 1.068l-15.094 6.968c-1.397-1.58-3.414-2.597-5.682-2.597-4.198 0-7.615 3.416-7.615 7.614s3.417 7.614 7.615 7.614c2.446 0 4.602-1.18 5.996-2.977l14.73 5.665c-.015.194-.058.379-.058.576 0 4.198 3.416 7.614 7.614 7.614s7.615-3.416 7.615-7.614-3.417-7.615-7.615-7.615z"/></svg></svg>